<?xml version="1.0" ?><!DOCTYPE svg  PUBLIC '-//W3C//DTD SVG 1.1//EN'  'http://www.w3.org/Graphics/SVG/1.1/DTD/svg11.dtd'><svg enable-background="new 0 0 512 512" height="512px" id="Layer_1" version="1.1" viewBox="0 0 512 512" width="512px" xml:space="preserve" xmlns="http://www.w3.org/2000/svg" xmlns:xlink="http://www.w3.org/1999/xlink"><path d="M489.489,218.838C471.354,144.47,446.228,67.05,356.557,79.772c-34.592,4.915-60.766,25.202-99.367,25.296  c-32.261,0.079-57.532-20.294-87.178-25.296C80.428,64.651,59.194,107.557,33.169,187.548  c-14.713,45.221-61.7,201.165-8.293,238.501c54.11,37.829,113.18-66.247,153.903-82.098c35.169-13.692,110.836-12.51,145.507-2.047  c47.036,14.196,93.367,104.091,146.369,92.255C543.229,417.96,500.467,263.84,489.489,218.838 M150.74,284.493  c-39.017-0.007-70.624-31.617-70.63-70.628c0.006-39.015,31.613-70.623,70.63-70.626c39.013,0.003,70.621,31.612,70.625,70.626  C221.361,252.876,189.754,284.486,150.74,284.493 M370.84,155.164c8.07-8.069,21.15-8.069,29.22,0  c8.064,8.065,8.063,21.147-0.003,29.213c-8.07,8.069-21.146,8.069-29.217,0.003C362.773,176.312,362.773,163.233,370.84,155.164   M331.514,223.709c-8.07-8.073-8.07-21.152,0-29.217c8.068-8.069,21.15-8.069,29.218,0c8.067,8.065,8.064,21.143-0.002,29.212  C352.662,231.771,339.581,231.772,331.514,223.709 M398.67,261.646c-8.068,8.067-21.148,8.067-29.217,0  c-8.068-8.066-8.064-21.149,0.002-29.214c8.069-8.068,21.151-8.073,29.215-0.005C406.74,240.496,406.74,253.58,398.67,261.646   M437.999,222.322c-8.07,8.069-21.15,8.069-29.217,0c-8.069-8.07-8.065-21.149,0.002-29.218c8.068-8.069,21.148-8.069,29.215,0  C446.068,201.169,446.068,214.252,437.999,222.322 M150.74,172.354c-22.922,0.047-41.466,18.589-41.506,41.511  c0.041,22.919,18.584,41.466,41.506,41.508c22.917-0.042,41.462-18.589,41.505-41.508  C192.203,190.943,173.657,172.401,150.74,172.354"/></svg>